<?xml version="1.0" standalone="no"?><?xml-stylesheet type="text/css" href="https://www.processon.com/themes/default/mind/icons/icons.css" ?><!DOCTYPE svg PUBLIC "-//W3C//DTD SVG 1.1//EN" "http://www.w3.org/Graphics/SVG/1.1/DTD/svg11.dtd"><svg id="SvgjsSvg1000" xmlns="http://www.w3.org/2000/svg" version="1.1" xmlns:xlink="http://www.w3.org/1999/xlink" xmlns:svgjs="http://svgjs.com/svgjs" width="883.453125" height="928"><rect fill="url(#pattern_mark)" transform="translate(-72.5,-5)" width="1000" height="1200" id="rect_mark" pointer-events="none"></rect><defs id="SvgjsDefs1001"><marker id="SvgjsMarker1033" markerWidth="14" markerHeight="10" refX="10" refY="5" viewBox="0 0 14 10" orient="auto" markerUnits="userSpaceOnUse" stroke-dasharray="0,0"><path id="SvgjsPath1034" d="M0 0L14 5L0 10L0 0 " fill="#323232" stroke="#323232" stroke-width="1"></path></marker><marker id="SvgjsMarker1041" markerWidth="14" markerHeight="10" refX="10" refY="5" viewBox="0 0 14 10" orient="auto" markerUnits="userSpaceOnUse" stroke-dasharray="0,0"><path id="SvgjsPath1042" d="M0 0L14 5L0 10L0 0 " fill="#323232" stroke="#323232" stroke-width="1"></path></marker><marker id="SvgjsMarker1045" markerWidth="14" markerHeight="10" refX="10" refY="5" viewBox="0 0 14 10" orient="auto" markerUnits="userSpaceOnUse" stroke-dasharray="0,0"><path id="SvgjsPath1046" d="M0 0L14 5L0 10L0 0 " fill="#323232" stroke="#323232" stroke-width="1"></path></marker><marker id="SvgjsMarker1053" markerWidth="14" markerHeight="10" refX="10" refY="5" viewBox="0 0 14 10" orient="auto" markerUnits="userSpaceOnUse" stroke-dasharray="0,0"><path id="SvgjsPath1054" d="M0 0L14 5L0 10L0 0 " fill="#323232" stroke="#323232" stroke-width="1"></path></marker><marker id="SvgjsMarker1079" markerWidth="14" markerHeight="10" refX="10" refY="5" viewBox="0 0 14 10" orient="auto" markerUnits="userSpaceOnUse" stroke-dasharray="0,0"><path id="SvgjsPath1080" d="M0 0L14 5L0 10L0 0 " fill="#323232" stroke="#323232" stroke-width="1"></path></marker><marker id="SvgjsMarker1083" markerWidth="14" markerHeight="10" refX="10" refY="5" viewBox="0 0 14 10" orient="auto" markerUnits="userSpaceOnUse" stroke-dasharray="0,0"><path id="SvgjsPath1084" d="M0 0L14 5L0 10L0 0 " fill="#323232" stroke="#323232" stroke-width="1"></path></marker><marker id="SvgjsMarker1087" markerWidth="14" markerHeight="10" refX="10" refY="5" viewBox="0 0 14 10" orient="auto" markerUnits="userSpaceOnUse" stroke-dasharray="0,0"><path id="SvgjsPath1088" d="M0 0L14 5L0 10L0 0 " fill="#323232" stroke="#323232" stroke-width="1"></path></marker><marker id="SvgjsMarker1099" markerWidth="14" markerHeight="10" refX="10" refY="5" viewBox="0 0 14 10" orient="auto" markerUnits="userSpaceOnUse" stroke-dasharray="0,0"><path id="SvgjsPath1100" d="M0 0L14 5L0 10L0 0 " fill="#323232" stroke="#323232" stroke-width="1"></path></marker><marker id="SvgjsMarker1115" markerWidth="14" markerHeight="10" refX="10" refY="5" viewBox="0 0 14 10" orient="auto" markerUnits="userSpaceOnUse" stroke-dasharray="0,0"><path id="SvgjsPath1116" d="M0 0L14 5L0 10L0 0 " fill="#323232" stroke="#323232" stroke-width="1"></path></marker><marker id="SvgjsMarker1119" markerWidth="14" markerHeight="10" refX="10" refY="5" viewBox="0 0 14 10" orient="auto" markerUnits="userSpaceOnUse" stroke-dasharray="0,0"><path id="SvgjsPath1120" d="M0 0L14 5L0 10L0 0 " fill="#323232" stroke="#323232" stroke-width="1"></path></marker><marker id="SvgjsMarker1131" markerWidth="14" markerHeight="10" refX="10" refY="5" viewBox="0 0 14 10" orient="auto" markerUnits="userSpaceOnUse" stroke-dasharray="0,0"><path id="SvgjsPath1132" d="M0 0L14 5L0 10L0 0 " fill="#323232" stroke="#323232" stroke-width="1"></path></marker><marker id="SvgjsMarker1161" markerWidth="14" markerHeight="10" refX="10" refY="5" viewBox="0 0 14 10" orient="auto" markerUnits="userSpaceOnUse" stroke-dasharray="0,0"><path id="SvgjsPath1162" d="M0 0L14 5L0 10L0 0 " fill="#323232" stroke="#323232" stroke-width="1"></path></marker><marker id="SvgjsMarker1165" markerWidth="14" markerHeight="10" refX="10" refY="5" viewBox="0 0 14 10" orient="auto" markerUnits="userSpaceOnUse" stroke-dasharray="0,0"><path id="SvgjsPath1166" d="M0 0L14 5L0 10L0 0 " fill="#323232" stroke="#323232" stroke-width="1"></path></marker><marker id="SvgjsMarker1169" markerWidth="14" markerHeight="10" refX="10" refY="5" viewBox="0 0 14 10" orient="auto" markerUnits="userSpaceOnUse" stroke-dasharray="0,0"><path id="SvgjsPath1170" d="M0 0L14 5L0 10L0 0 " fill="#323232" stroke="#323232" stroke-width="1"></path></marker><marker id="SvgjsMarker1173" markerWidth="14" markerHeight="10" refX="10" refY="5" viewBox="0 0 14 10" orient="auto" markerUnits="userSpaceOnUse" stroke-dasharray="0,0"><path id="SvgjsPath1174" d="M0 0L14 5L0 10L0 0 " fill="#323232" stroke="#323232" stroke-width="1"></path></marker><marker id="SvgjsMarker1213" markerWidth="14" markerHeight="10" refX="10" refY="5" viewBox="0 0 14 10" orient="auto" markerUnits="userSpaceOnUse" stroke-dasharray="0,0"><path id="SvgjsPath1214" d="M0 0L14 5L0 10L0 0 " fill="#323232" stroke="#323232" stroke-width="1"></path></marker><marker id="SvgjsMarker1217" markerWidth="14" markerHeight="10" refX="10" refY="5" viewBox="0 0 14 10" orient="auto" markerUnits="userSpaceOnUse" stroke-dasharray="0,0"><path id="SvgjsPath1218" d="M0 0L14 5L0 10L0 0 " fill="#323232" stroke="#323232" stroke-width="1"></path></marker><marker id="SvgjsMarker1221" markerWidth="14" markerHeight="10" refX="10" refY="5" viewBox="0 0 14 10" orient="auto" markerUnits="userSpaceOnUse" stroke-dasharray="0,0"><path id="SvgjsPath1222" d="M0 0L14 5L0 10L0 0 " fill="#323232" stroke="#323232" stroke-width="1"></path></marker><marker id="SvgjsMarker1235" markerWidth="14" markerHeight="10" refX="10" refY="5" viewBox="0 0 14 10" orient="auto" markerUnits="userSpaceOnUse" stroke-dasharray="0,0"><path id="SvgjsPath1236" d="M0 0L14 5L0 10L0 0 " fill="#323232" stroke="#323232" stroke-width="1"></path></marker><marker id="SvgjsMarker1239" markerWidth="14" markerHeight="10" refX="10" refY="5" viewBox="0 0 14 10" orient="auto" markerUnits="userSpaceOnUse" stroke-dasharray="0,0"><path id="SvgjsPath1240" d="M0 0L14 5L0 10L0 0 " fill="#323232" stroke="#323232" stroke-width="1"></path></marker><marker id="SvgjsMarker1253" markerWidth="14" markerHeight="10" refX="10" refY="5" viewBox="0 0 14 10" orient="auto" markerUnits="userSpaceOnUse" stroke-dasharray="0,0"><path id="SvgjsPath1254" d="M0 0L14 5L0 10L0 0 " fill="#323232" stroke="#323232" stroke-width="1"></path></marker><marker id="SvgjsMarker1257" markerWidth="14" markerHeight="10" refX="10" refY="5" viewBox="0 0 14 10" orient="auto" markerUnits="userSpaceOnUse" stroke-dasharray="0,0"><path id="SvgjsPath1258" d="M0 0L14 5L0 10L0 0 " fill="#323232" stroke="#323232" stroke-width="1"></path></marker><marker id="SvgjsMarker1261" markerWidth="14" markerHeight="10" refX="10" refY="5" viewBox="0 0 14 10" orient="auto" markerUnits="userSpaceOnUse" stroke-dasharray="0,0"><path id="SvgjsPath1262" d="M0 0L14 5L0 10L0 0 " fill="#323232" stroke="#323232" stroke-width="1"></path></marker><pattern patternUnits="userSpaceOnUse" id="pattern_mark" width="300" height="300"><text x="-50" y="150" fill="rgba(229,229,229,0.8)" font-size="18" transform="rotate(-45, 150, 150)"></text></pattern></defs><g id="svgbackgroundid"><defs></defs><rect x="0" y="0" width="883.453125" height="928" fill="#ffffff"></rect></g><g id="SvgjsG1007" transform="translate(311,25)"><path id="SvgjsPath1008" d="M11.938349007314526 0L67.06165099268547 0C82.97944966910484 0 82.97944966910484 35.81504702194358 67.06165099268547 35.81504702194358L11.938349007314526 35.81504702194358C-3.979449669104842 35.81504702194358 -3.979449669104842 0 11.938349007314526 0Z " stroke="rgba(50,50,50,1)" stroke-width="2" fill-opacity="1" fill="#ffffff"></path><g id="SvgjsG1009"><text id="SvgjsText1010" font-family="微软雅黑" text-anchor="middle" font-size="13px" width="59px" fill="#323232" font-weight="400" align="middle" lineheight="125%" font-style="" opacity="1" y="7.282523510971789" transform="rotate(0)"><tspan id="SvgjsTspan1011" dy="16" x="39.5"><tspan id="SvgjsTspan1012" style="text-decoration:;">开始</tspan></tspan></text></g></g><g id="SvgjsG1013" transform="translate(311,115.5)"><path id="SvgjsPath1014" d="M0 0L79 0L79 51L0 51Z " stroke="rgba(50,50,50,1)" stroke-width="2" fill-opacity="1" fill="#ffffff"></path><g id="SvgjsG1015"><text id="SvgjsText1016" font-family="微软雅黑" text-anchor="middle" font-size="13px" width="59px" fill="#323232" font-weight="400" align="middle" lineheight="125%" font-style="" opacity="1" y="14.875" transform="rotate(0)"><tspan id="SvgjsTspan1017" dy="16" x="39.5"><tspan id="SvgjsTspan1018" style="text-decoration:;">登录</tspan></tspan></text></g></g><g id="SvgjsG1019" transform="translate(462,115.5)"><path id="SvgjsPath1020" d="M0 0L79 0L79 51L0 51Z " stroke="rgba(50,50,50,1)" stroke-width="2" fill-opacity="1" fill="#ffffff"></path><g id="SvgjsG1021"><text id="SvgjsText1022" font-family="微软雅黑" text-anchor="middle" font-size="13px" width="59px" fill="#323232" font-weight="400" align="middle" lineheight="125%" font-style="" opacity="1" y="14.875" transform="rotate(0)"><tspan id="SvgjsTspan1023" dy="16" x="39.5"><tspan id="SvgjsTspan1024" style="text-decoration:;">注册</tspan></tspan></text></g></g><g id="SvgjsG1025" transform="translate(311,199.64263322884014)"><path id="SvgjsPath1026" d="M0 0L79 0L79 51L0 51Z " stroke="rgba(50,50,50,1)" stroke-width="2" fill-opacity="1" fill="#ffffff"></path><g id="SvgjsG1027"><text id="SvgjsText1028" font-family="微软雅黑" text-anchor="middle" font-size="13px" width="59px" fill="#323232" font-weight="400" align="middle" lineheight="125%" font-style="" opacity="1" y="14.875" transform="rotate(0)"><tspan id="SvgjsTspan1029" dy="16" x="39.5"><tspan id="SvgjsTspan1030" style="text-decoration:;">进入首页</tspan></tspan></text></g></g><g id="SvgjsG1031"><path id="SvgjsPath1032" d="M391 141L426 141L426 141L458.4 141 " stroke="#323232" stroke-width="2" fill="none" marker-end="url(#SvgjsMarker1033)"></path><rect id="SvgjsRect1035" width="39" height="16" x="405.2" y="133" fill="#ffffff"></rect><text id="SvgjsText1036" font-family="微软雅黑" text-anchor="middle" font-size="13px" width="39px" fill="#323232" font-weight="400" align="top" lineheight="16px" font-style="" opacity="1" y="130.375" transform="rotate(0)"><tspan id="SvgjsTspan1037" dy="16" x="424.7"><tspan id="SvgjsTspan1038" style="text-decoration:;">未注册</tspan></tspan></text></g><g id="SvgjsG1039"><path id="SvgjsPath1040" d="M350.5 61.81504702194357L350.5 88.15752351097179L350.5 88.15752351097179L350.5 111.9 " stroke="#323232" stroke-width="2" fill="none" marker-end="url(#SvgjsMarker1041)"></path></g><g id="SvgjsG1043"><path id="SvgjsPath1044" d="M350.5 167.5L350.5 183.07131661442008L350.5 183.07131661442008L350.5 196.04263322884015 " stroke="#323232" stroke-width="2" fill="none" marker-end="url(#SvgjsMarker1045)"></path><rect id="SvgjsRect1047" width="52" height="16" x="324.5" y="173.77131661442007" fill="#ffffff"></rect><text id="SvgjsText1048" font-family="微软雅黑" text-anchor="middle" font-size="13px" width="52px" fill="#323232" font-weight="400" align="top" lineheight="16px" font-style="" opacity="1" y="171.14631661442007" transform="rotate(0)"><tspan id="SvgjsTspan1049" dy="16" x="350.5"><tspan id="SvgjsTspan1050" style="text-decoration:;">登录成功</tspan></tspan></text></g><g id="SvgjsG1051"><path id="SvgjsPath1052" d="M501.5 114.5L501.5 85.5L350.5 85.5L350.5 111.9 " stroke="#323232" stroke-width="2" fill="none" marker-end="url(#SvgjsMarker1053)"></path><rect id="SvgjsRect1055" width="52" height="16" x="401.29999999999995" y="77.5" fill="#ffffff"></rect><text id="SvgjsText1056" font-family="微软雅黑" text-anchor="middle" font-size="13px" width="52px" fill="#323232" font-weight="400" align="top" lineheight="16px" font-style="" opacity="1" y="74.875" transform="rotate(0)"><tspan id="SvgjsTspan1057" dy="16" x="427.29999999999995"><tspan id="SvgjsTspan1058" style="text-decoration:;">注册成功</tspan></tspan></text></g><g id="SvgjsG1059" transform="translate(25,313.5)"><path id="SvgjsPath1060" d="M0 0L79 0L79 51L0 51Z " stroke="rgba(50,50,50,1)" stroke-width="2" fill-opacity="1" fill="#ffffff"></path><g id="SvgjsG1061"><text id="SvgjsText1062" font-family="微软雅黑" text-anchor="middle" font-size="13px" width="59px" fill="#323232" font-weight="400" align="middle" lineheight="125%" font-style="" opacity="1" y="14.875" transform="rotate(0)"><tspan id="SvgjsTspan1063" dy="16" x="39.5"><tspan id="SvgjsTspan1064" style="text-decoration:;">个人中心</tspan></tspan></text></g></g><g id="SvgjsG1065" transform="translate(311,313.5)"><path id="SvgjsPath1066" d="M0 0L79 0L79 51L0 51Z " stroke="rgba(50,50,50,1)" stroke-width="2" fill-opacity="1" fill="#ffffff"></path><g id="SvgjsG1067"><text id="SvgjsText1068" font-family="微软雅黑" text-anchor="middle" font-size="13px" width="59px" fill="#323232" font-weight="400" align="middle" lineheight="125%" font-style="" opacity="1" y="14.875" transform="rotate(0)"><tspan id="SvgjsTspan1069" dy="16" x="39.5"><tspan id="SvgjsTspan1070" style="text-decoration:;">新建表单</tspan></tspan></text></g></g><g id="SvgjsG1071" transform="translate(646,313.5)"><path id="SvgjsPath1072" d="M0 0L79 0L79 51L0 51Z " stroke="rgba(50,50,50,1)" stroke-width="2" fill-opacity="1" fill="#ffffff"></path><g id="SvgjsG1073"><text id="SvgjsText1074" font-family="微软雅黑" text-anchor="middle" font-size="13px" width="59px" fill="#323232" font-weight="400" align="middle" lineheight="125%" font-style="" opacity="1" y="14.875" transform="rotate(0)"><tspan id="SvgjsTspan1075" dy="16" x="39.5"><tspan id="SvgjsTspan1076" style="text-decoration:;">表单列表</tspan></tspan></text></g></g><g id="SvgjsG1077"><path id="SvgjsPath1078" d="M350.5 251.64263322884017L350.5 282.0713166144201L64.50000000000003 282.0713166144201L64.50000000000003 309.9 " stroke="#323232" stroke-width="2" fill="none" marker-end="url(#SvgjsMarker1079)"></path></g><g id="SvgjsG1081"><path id="SvgjsPath1082" d="M350.5 251.64263322884017L350.5 282.0713166144201L350.5 282.0713166144201L350.5 309.9 " stroke="#323232" stroke-width="2" fill="none" marker-end="url(#SvgjsMarker1083)"></path></g><g id="SvgjsG1085"><path id="SvgjsPath1086" d="M350.5 251.64263322884017L350.5 282.0713166144201L685.5 282.0713166144201L685.5 309.9 " stroke="#323232" stroke-width="2" fill="none" marker-end="url(#SvgjsMarker1087)"></path></g><g id="SvgjsG1089" transform="translate(25,395.47021943573674)"><path id="SvgjsPath1090" d="M0 0L79 0L79 51L0 51Z " stroke="rgba(50,50,50,1)" stroke-width="2" fill-opacity="1" fill="#ffffff"></path><g id="SvgjsG1091"><text id="SvgjsText1092" font-family="微软雅黑" text-anchor="middle" font-size="13px" width="59px" fill="#323232" font-weight="400" align="middle" lineheight="125%" font-style="" opacity="1" y="6.875" transform="rotate(0)"><tspan id="SvgjsTspan1093" dy="16" x="39.5"><tspan id="SvgjsTspan1094" style="text-decoration:;">用户功能</tspan></tspan><tspan id="SvgjsTspan1095" dy="16" x="39.5"><tspan id="SvgjsTspan1096" style="text-decoration:;">模块</tspan></tspan></text></g></g><g id="SvgjsG1097"><path id="SvgjsPath1098" d="M64.50000000000003 365.5L64.50000000000003 379.98510971786834L64.50000000000003 379.98510971786834L64.50000000000003 391.8702194357367 " stroke="#323232" stroke-width="2" fill="none" marker-end="url(#SvgjsMarker1099)"></path></g><g id="SvgjsG1101" transform="translate(311,395.47021943573674)"><path id="SvgjsPath1102" d="M0 0L79 0L79 51L0 51Z " stroke="rgba(50,50,50,1)" stroke-width="2" fill-opacity="1" fill="#ffffff"></path><g id="SvgjsG1103"><text id="SvgjsText1104" font-family="微软雅黑" text-anchor="middle" font-size="13px" width="59px" fill="#323232" font-weight="400" align="middle" lineheight="125%" font-style="" opacity="1" y="14.875" transform="rotate(0)"><tspan id="SvgjsTspan1105" dy="16" x="39.5"><tspan id="SvgjsTspan1106" style="text-decoration:;">表单模块</tspan></tspan></text></g></g><g id="SvgjsG1107" transform="translate(646,395.47021943573674)"><path id="SvgjsPath1108" d="M0 0L79 0L79 51L0 51Z " stroke="rgba(50,50,50,1)" stroke-width="2" fill-opacity="1" fill="#ffffff"></path><g id="SvgjsG1109"><text id="SvgjsText1110" font-family="微软雅黑" text-anchor="middle" font-size="13px" width="59px" fill="#323232" font-weight="400" align="middle" lineheight="125%" font-style="" opacity="1" y="14.875" transform="rotate(0)"><tspan id="SvgjsTspan1111" dy="16" x="39.5"><tspan id="SvgjsTspan1112" style="text-decoration:;">首页模块</tspan></tspan></text></g></g><g id="SvgjsG1113"><path id="SvgjsPath1114" d="M685.5 365.5L685.5 379.98510971786834L685.5 379.98510971786834L685.5 391.8702194357367 " stroke="#323232" stroke-width="2" fill="none" marker-end="url(#SvgjsMarker1115)"></path></g><g id="SvgjsG1117"><path id="SvgjsPath1118" d="M350.50000000000006 365.5L350.50000000000006 379.98510971786834L350.50000000000006 379.98510971786834L350.50000000000006 391.8702194357367 " stroke="#323232" stroke-width="2" fill="none" marker-end="url(#SvgjsMarker1119)"></path></g><g id="SvgjsG1121" transform="translate(646,477.4404388714735)"><path id="SvgjsPath1122" d="M0 0L79 0L79 51L0 51Z " stroke="rgba(50,50,50,1)" stroke-width="2" fill-opacity="1" fill="#ffffff"></path><g id="SvgjsG1123"><text id="SvgjsText1124" font-family="微软雅黑" text-anchor="middle" font-size="13px" width="59px" fill="#323232" font-weight="400" align="middle" lineheight="125%" font-style="" opacity="1" y="6.875" transform="rotate(0)"><tspan id="SvgjsTspan1125" dy="16" x="39.5"><tspan id="SvgjsTspan1126" style="text-decoration:;">获取表单</tspan></tspan><tspan id="SvgjsTspan1127" dy="16" x="39.5"><tspan id="SvgjsTspan1128" style="text-decoration:;">列表</tspan></tspan></text></g></g><g id="SvgjsG1129"><path id="SvgjsPath1130" d="M685.5 447.47021943573674L685.5 461.95532915360513L685.5 461.95532915360513L685.5 473.84043887147345 " stroke="#323232" stroke-width="2" fill="none" marker-end="url(#SvgjsMarker1131)"></path></g><g id="SvgjsG1133" transform="translate(518.0392857142857,670.5)"><path id="SvgjsPath1134" d="M0 0L79 0L79 51L0 51Z " stroke="rgba(50,50,50,1)" stroke-width="2" fill-opacity="1" fill="#ffffff"></path><g id="SvgjsG1135"><text id="SvgjsText1136" font-family="微软雅黑" text-anchor="middle" font-size="13px" width="59px" fill="#323232" font-weight="400" align="middle" lineheight="125%" font-style="" opacity="1" y="14.875" transform="rotate(0)"><tspan id="SvgjsTspan1137" dy="16" x="39.5"><tspan id="SvgjsTspan1138" style="text-decoration:;">获取表单</tspan></tspan></text></g></g><g id="SvgjsG1139" transform="translate(605.0392857142857,670.5)"><path id="SvgjsPath1140" d="M0 0L79 0L79 51L0 51Z " stroke="rgba(50,50,50,1)" stroke-width="2" fill-opacity="1" fill="#ffffff"></path><g id="SvgjsG1141"><text id="SvgjsText1142" font-family="微软雅黑" text-anchor="middle" font-size="13px" width="59px" fill="#323232" font-weight="400" align="middle" lineheight="125%" font-style="" opacity="1" y="14.875" transform="rotate(0)"><tspan id="SvgjsTspan1143" dy="16" x="39.5"><tspan id="SvgjsTspan1144" style="text-decoration:;">删除表单</tspan></tspan></text></g></g><g id="SvgjsG1145" transform="translate(692.2535714285715,670.5)"><path id="SvgjsPath1146" d="M0 0L79 0L79 51L0 51Z " stroke="rgba(50,50,50,1)" stroke-width="2" fill-opacity="1" fill="#ffffff"></path><g id="SvgjsG1147"><text id="SvgjsText1148" font-family="微软雅黑" text-anchor="middle" font-size="13px" width="59px" fill="#323232" font-weight="400" align="middle" lineheight="125%" font-style="" opacity="1" y="14.875" transform="rotate(0)"><tspan id="SvgjsTspan1149" dy="16" x="39.5"><tspan id="SvgjsTspan1150" style="text-decoration:;">表单标星</tspan></tspan></text></g></g><g id="SvgjsG1151" transform="translate(779.4678571428573,670.5)"><path id="SvgjsPath1152" d="M0 0L79 0L79 51L0 51Z " stroke="rgba(50,50,50,1)" stroke-width="2" fill-opacity="1" fill="#ffffff"></path><g id="SvgjsG1153"><text id="SvgjsText1154" font-family="微软雅黑" text-anchor="middle" font-size="13px" width="59px" fill="#323232" font-weight="400" align="middle" lineheight="125%" font-style="" opacity="1" y="6.875" transform="rotate(0)"><tspan id="SvgjsTspan1155" dy="16" x="39.5"><tspan id="SvgjsTspan1156" style="text-decoration:;">表单取消</tspan></tspan><tspan id="SvgjsTspan1157" dy="16" x="39.5"><tspan id="SvgjsTspan1158" style="text-decoration:;">标星</tspan></tspan></text></g></g><g id="SvgjsG1159"><path id="SvgjsPath1160" d="M685.5 529.4404388714735L685.5 599.4702194357367L557.5392857142856 599.4702194357367L557.5392857142856 666.9 " stroke="#323232" stroke-width="2" fill="none" marker-end="url(#SvgjsMarker1161)"></path></g><g id="SvgjsG1163"><path id="SvgjsPath1164" d="M685.5 529.4404388714735L685.5 599.4702194357367L644.5392857142857 599.4702194357367L644.5392857142857 666.9 " stroke="#323232" stroke-width="2" fill="none" marker-end="url(#SvgjsMarker1165)"></path></g><g id="SvgjsG1167"><path id="SvgjsPath1168" d="M685.5 529.4404388714735L685.5 599.4702194357367L731.7535714285715 599.4702194357367L731.7535714285715 666.9 " stroke="#323232" stroke-width="2" fill="none" marker-end="url(#SvgjsMarker1169)"></path></g><g id="SvgjsG1171"><path id="SvgjsPath1172" d="M685.5 529.4404388714735L685.5 599.4702194357367L818.9678571428573 599.4702194357367L818.9678571428573 666.9 " stroke="#323232" stroke-width="2" fill="none" marker-end="url(#SvgjsMarker1173)"></path></g><g id="SvgjsG1175" transform="translate(311,477.4404388714735)"><path id="SvgjsPath1176" d="M0 0L79 0L79 51L0 51Z " stroke="rgba(50,50,50,1)" stroke-width="2" fill-opacity="1" fill="#ffffff"></path><g id="SvgjsG1177"><text id="SvgjsText1178" font-family="微软雅黑" text-anchor="middle" font-size="13px" width="59px" fill="#323232" font-weight="400" align="middle" lineheight="125%" font-style="" opacity="1" y="14.875" transform="rotate(0)"><tspan id="SvgjsTspan1179" dy="16" x="39.5"><tspan id="SvgjsTspan1180" style="text-decoration:;">创建表单</tspan></tspan></text></g></g><g id="SvgjsG1181" transform="translate(161,761.25)"><path id="SvgjsPath1182" d="M0 0L79 0L79 51L0 51Z " stroke="rgba(50,50,50,1)" stroke-width="2" fill-opacity="1" fill="#ffffff"></path><g id="SvgjsG1183"><text id="SvgjsText1184" font-family="微软雅黑" text-anchor="middle" font-size="13px" width="59px" fill="#323232" font-weight="400" align="middle" lineheight="125%" font-style="" opacity="1" y="6.875" transform="rotate(0)"><tspan id="SvgjsTspan1185" dy="16" x="39.5"><tspan id="SvgjsTspan1186" style="text-decoration:;">获取表单</tspan></tspan><tspan id="SvgjsTspan1187" dy="16" x="39.5"><tspan id="SvgjsTspan1188" style="text-decoration:;">填写详情</tspan></tspan></text></g></g><g id="SvgjsG1189" transform="translate(311,670.5)"><path id="SvgjsPath1190" d="M0 0L79 0L79 51L0 51Z " stroke="rgba(50,50,50,1)" stroke-width="2" fill-opacity="1" fill="#ffffff"></path><g id="SvgjsG1191"><text id="SvgjsText1192" font-family="微软雅黑" text-anchor="middle" font-size="13px" width="59px" fill="#323232" font-weight="400" align="middle" lineheight="125%" font-style="" opacity="1" y="6.875" transform="rotate(0)"><tspan id="SvgjsTspan1193" dy="16" x="39.5"><tspan id="SvgjsTspan1194" style="text-decoration:;">开始收集</tspan></tspan><tspan id="SvgjsTspan1195" dy="16" x="39.5"><tspan id="SvgjsTspan1196" style="text-decoration:;">表单</tspan></tspan></text></g></g><g id="SvgjsG1197" transform="translate(311,852)"><path id="SvgjsPath1198" d="M0 0L79 0L79 51L0 51Z " stroke="rgba(50,50,50,1)" stroke-width="2" fill-opacity="1" fill="#ffffff"></path><g id="SvgjsG1199"><text id="SvgjsText1200" font-family="微软雅黑" text-anchor="middle" font-size="13px" width="59px" fill="#323232" font-weight="400" align="middle" lineheight="125%" font-style="" opacity="1" y="6.875" transform="rotate(0)"><tspan id="SvgjsTspan1201" dy="16" x="39.5"><tspan id="SvgjsTspan1202" style="text-decoration:;">结束收集</tspan></tspan><tspan id="SvgjsTspan1203" dy="16" x="39.5"><tspan id="SvgjsTspan1204" style="text-decoration:;">表单</tspan></tspan></text></g></g><g id="SvgjsG1205" transform="translate(311,559.4106583072103)"><path id="SvgjsPath1206" d="M0 0L79 0L79 51L0 51Z " stroke="rgba(50,50,50,1)" stroke-width="2" fill-opacity="1" fill="#ffffff"></path><g id="SvgjsG1207"><text id="SvgjsText1208" font-family="微软雅黑" text-anchor="middle" font-size="13px" width="59px" fill="#323232" font-weight="400" align="middle" lineheight="125%" font-style="" opacity="1" y="14.875" transform="rotate(0)"><tspan id="SvgjsTspan1209" dy="16" x="39.5"><tspan id="SvgjsTspan1210" style="text-decoration:;">问题模块</tspan></tspan></text></g></g><g id="SvgjsG1211"><path id="SvgjsPath1212" d="M350.5 447.47021943573674L350.5 461.95532915360513L350.5 461.95532915360513L350.5 473.84043887147345 " stroke="#323232" stroke-width="2" fill="none" marker-end="url(#SvgjsMarker1213)"></path></g><g id="SvgjsG1215"><path id="SvgjsPath1216" d="M350.5 529.4404388714735L350.5 543.9255485893418L350.5 543.9255485893418L350.5 555.8106583072102 " stroke="#323232" stroke-width="2" fill="none" marker-end="url(#SvgjsMarker1217)"></path></g><g id="SvgjsG1219"><path id="SvgjsPath1220" d="M350.5 611.4106583072103L350.5 640.4553291536051L350.5 640.4553291536051L350.5 666.9 " stroke="#323232" stroke-width="2" fill="none" marker-end="url(#SvgjsMarker1221)"></path><rect id="SvgjsRect1223" width="52" height="16" x="324.5" y="631.1553291536051" fill="#ffffff"></rect><text id="SvgjsText1224" font-family="微软雅黑" text-anchor="middle" font-size="13px" width="52px" fill="#323232" font-weight="400" align="top" lineheight="16px" font-style="" opacity="1" y="628.5303291536051" transform="rotate(0)"><tspan id="SvgjsTspan1225" dy="16" x="350.5"><tspan id="SvgjsTspan1226" style="text-decoration:;">创建完成</tspan></tspan></text></g><g id="SvgjsG1227" transform="translate(311,761.25)"><path id="SvgjsPath1228" d="M0 0L79 0L79 51L0 51Z " stroke="rgba(50,50,50,1)" stroke-width="2" fill-opacity="1" fill="#ffffff"></path><g id="SvgjsG1229"><text id="SvgjsText1230" font-family="微软雅黑" text-anchor="middle" font-size="13px" width="59px" fill="#323232" font-weight="400" align="middle" lineheight="125%" font-style="" opacity="1" y="14.875" transform="rotate(0)"><tspan id="SvgjsTspan1231" dy="16" x="39.5"><tspan id="SvgjsTspan1232" style="text-decoration:;">填写表单</tspan></tspan></text></g></g><g id="SvgjsG1233"><path id="SvgjsPath1234" d="M350.5 722.5L350.5 741.375L350.5 741.375L350.5 757.65 " stroke="#323232" stroke-width="2" fill="none" marker-end="url(#SvgjsMarker1235)"></path></g><g id="SvgjsG1237"><path id="SvgjsPath1238" d="M350.5 813.25L350.5 832.125L350.5 832.125L350.5 848.4 " stroke="#323232" stroke-width="2" fill="none" marker-end="url(#SvgjsMarker1239)"></path></g><g id="SvgjsG1241" transform="translate(57,761.25)"><path id="SvgjsPath1242" d="M0 0L79 0L79 51L0 51Z " stroke="rgba(50,50,50,1)" stroke-width="2" fill-opacity="1" fill="#ffffff"></path><g id="SvgjsG1243"><text id="SvgjsText1244" font-family="微软雅黑" text-anchor="middle" font-size="13px" width="59px" fill="#323232" font-weight="400" align="middle" lineheight="125%" font-style="" opacity="1" y="-1.125" transform="rotate(0)"><tspan id="SvgjsTspan1245" dy="16" x="39.5"><tspan id="SvgjsTspan1246" style="text-decoration:;">获取单个</tspan></tspan><tspan id="SvgjsTspan1247" dy="16" x="39.5"><tspan id="SvgjsTspan1248" style="text-decoration:;">表单填写</tspan></tspan><tspan id="SvgjsTspan1249" dy="16" x="39.5"><tspan id="SvgjsTspan1250" style="text-decoration:;">详情</tspan></tspan></text></g></g><g id="SvgjsG1251"><path id="SvgjsPath1252" d="M160 786.75L148.5 786.75L148.5 786.75L139.6 786.75 " stroke="#323232" stroke-width="2" fill="none" marker-end="url(#SvgjsMarker1253)"></path></g><g id="SvgjsG1255"><path id="SvgjsPath1256" d="M310 696L275.5 696L275.5 786.75L243.60000000000002 786.75 " stroke="#323232" stroke-width="2" fill="none" marker-end="url(#SvgjsMarker1257)"></path></g><g id="SvgjsG1259"><path id="SvgjsPath1260" d="M310 877.5L275.5 877.5L275.5 786.75L243.60000000000002 786.75 " stroke="#323232" stroke-width="2" fill="none" marker-end="url(#SvgjsMarker1261)"></path></g></svg>